<?xml version="1.0" encoding="utf-8" ?>
<svg xmlns="http://www.w3.org/2000/svg" xmlns:xlink="http://www.w3.org/1999/xlink" width="602" height="301">
	<path fill="#010101" transform="scale(0.588235 0.588235)" d="M631.435 189.706C637.427 188.74 647.35 189.665 653.841 189.682L683.519 189.654C697.136 189.638 711.326 188.982 723.291 196.675C750.73 214.317 746.577 261.495 710.629 269.177C716.16 271.985 747.114 310.225 747.593 314.466L734.375 314.466L716.582 314.466C716.064 310.809 687.198 275.323 683.272 273.067L656.489 273.067C656.585 273.305 657.693 312.045 656.489 314.466L631.435 314.466C632.475 312.193 631.446 297.796 631.439 294.209L631.436 216.797C631.441 210.702 632.383 194.287 631.435 189.706ZM710.629 246.75C717.642 242.288 719.111 215.588 700.438 211.655C697.124 210.957 660.259 210.463 656.489 211.153C656.861 212.927 657.31 251.003 656.489 252.543C665.718 252.566 706.383 255.034 710.629 246.75Z"/>
	<path fill="#010101" transform="scale(0.588235 0.588235)" d="M761.004 189.706C766.142 188.719 779.539 189.71 785.611 189.725L851.465 189.706C852.495 191.727 852.348 209.4 851.465 211.153L786.499 211.153C787.235 212.726 787.219 240.763 786.499 242.811C803.634 241.858 828.685 242.024 845.878 242.811C847.238 245.509 847.01 260.43 845.878 263.245L791.875 263.245L786.499 263.245C786.963 264.614 786.978 292.823 786.499 294.155L828.383 294.139C836.732 294.134 845.164 293.807 853.502 294.155C854.931 296.691 854.497 311.529 853.502 314.466L761.004 314.466C762.082 312.248 761.016 297.857 761.01 294.169L760.999 219.337C761.005 211.131 762.256 197.358 761.004 189.706Z"/>
	<path fill="#010101" transform="scale(0.588235 0.588235)" d="M275.28 189.706C305.998 190.164 336.804 189.763 367.53 189.706L367.53 211.153L300.511 211.153L300.511 242.811C313.705 244.53 347.198 243.324 360.946 242.811L360.946 263.245L308.724 263.245C305.989 263.164 303.247 263.225 300.511 263.245L300.511 294.155C322.838 294.425 345.2 294.169 367.53 294.155C367.579 300.92 367.722 307.704 367.53 314.466L275.28 314.466L275.28 189.706Z"/>
	<path fill="#010101" transform="scale(0.588235 0.588235)" d="M202.423 187.627C221.123 186.075 240.429 190.609 254.206 203.998C251.036 210.363 247.599 216.627 244.313 222.935C230.623 209.622 189.42 197.666 188.527 221.999C187.761 242.855 231.729 239.549 249.051 258.012C275.009 285.682 246.039 319.151 208.451 317.496C189.899 317.845 174.117 311.091 159.931 299.368C164.309 292.905 167.882 285.833 172.119 279.255C190.76 299.845 237.129 308.072 232.431 279.172C229.126 258.842 170.748 269.694 164.555 233.388C160.222 207.989 179.063 191.516 202.423 187.627Z"/>
	<path fill="#010101" transform="scale(0.588235 0.588235)" d="M430.393 189.706C460.292 184.533 484.737 196.085 487.6 227.863L461.537 227.863C461.907 206.764 438.609 204.639 423.261 211.041C405.906 218.28 410.282 239.474 410.269 254.687C410.261 263.106 409.647 272.112 410.609 280.458C413.156 302.554 453.825 305.339 461.537 283.464C461.539 275.425 479.679 279.172 487.6 279.255C481.717 328.053 413.813 326.624 393.608 301.713C382.26 287.721 385.004 267.924 385.025 251.199C385.048 232.463 382.864 212.253 399.332 199.09C407.608 192.475 419.848 188.53 430.393 189.706Z"/>
	<path fill="#124AE9" transform="scale(0.588235 0.588235)" d="M579.011 217.986C585.177 217.102 592.583 217.937 598.871 217.986C601.07 222.328 598.937 231.114 598.891 236.009L598.899 268.048C598.962 279.625 600.352 291.376 593.499 301.459C577.585 324.876 540.011 320.918 518.153 305.941C517.237 300.709 510.119 298.25 509.17 279.255L529.044 279.255C530.095 281.083 530.12 283.698 530.437 285.758C533.92 308.363 575.885 307.364 578.814 283.291C579.589 276.915 580.155 224.331 579.011 217.986Z"/>
	<path fill="#010101" transform="scale(0.588235 0.588235)" d="M538.98 254.11C547.178 256.02 555.145 255.688 563.487 255.714C564.308 257.589 564.32 279.858 563.487 281.559L548.397 281.559C549.459 279.176 549.591 269.862 548.397 267.472C529.301 267.362 524.382 270.546 515.48 254.11C521.921 252.924 531.95 254.487 538.98 254.11Z"/>
	<path fill="#124AE9" transform="scale(0.588235 0.588235)" d="M515.48 217.986L535.039 217.986C539.576 231.657 529.201 234.83 538.98 254.11C531.95 254.487 521.921 252.924 515.48 254.11C516.346 251.448 516.059 219.151 515.48 217.986Z"/>
	<path fill="#124AE9" transform="scale(0.588235 0.588235)" d="M566.468 189.706C580.567 189.251 594.825 189.696 608.942 189.706C610.201 192.249 610.251 201.948 608.942 203.998C604.857 204.847 599.169 204.098 594.874 204.064L566.468 203.998C567.894 201.342 566.671 192.96 566.468 189.706Z"/>
	<path fill="#124AE9" transform="scale(0.588235 0.588235)" d="M500.787 189.706L541.977 189.706C543.356 192.462 543.206 201.299 541.977 203.998C539.348 204.77 506.008 204.004 500.787 203.998L500.787 189.706Z"/>
	<path fill="#010101" transform="scale(0.588235 0.588235)" d="M548.397 217.986C553.244 217.442 558.588 217.94 563.487 217.986C564.293 219.898 564.399 241.365 563.487 242.811C559.449 243.851 552.761 242.887 548.397 242.811C549.183 241.155 548.732 220.95 548.397 217.986Z"/>
</svg>
