<?xml version="1.0" encoding="utf-8" ?>
<svg xmlns="http://www.w3.org/2000/svg" xmlns:xlink="http://www.w3.org/1999/xlink" width="637" height="319">
	<path transform="scale(0.622549 0.622549)" d="M326.198 148.905C336.708 148.225 347.641 148.869 358.201 148.881L857.317 148.863C910.993 148.844 916.056 149.571 915.952 210.428L915.968 307.919C915.974 329.792 915.661 357.079 884.891 359.016C874.557 359.579 863.887 359.027 853.524 359.023L357.846 359.007C299.595 359.169 296.505 354.181 296.486 301.502L296.498 200.168C296.508 177.343 295.804 154.163 326.198 148.905ZM656.773 193.105L624.523 193.105L623.801 193.521C623.486 199.823 624.52 206.795 624.532 213.268L624.52 251.87C624.524 270.092 623.113 287.809 636.294 302.286C660.039 328.367 727.162 319.315 728.898 277.947C729.168 271.511 726.873 267.138 733.035 267.634C735.295 269.448 760.052 310.775 760.303 313.214L794.903 313.214C795.102 310.562 770.744 271.127 766.21 268.214C765.352 265.933 762.471 263.669 760.303 262.624C791.413 255.75 799.159 215.797 772.93 199.378C761.082 191.961 746.968 193.08 733.614 193.067L698.169 193.105C699.506 196.974 698.416 265.409 697.986 270.877C696.047 295.529 664.338 298.192 658.38 278.033C653.335 260.962 659.943 199.613 656.773 193.105ZM802.941 313.214L874.858 313.214C875.67 311.321 875.717 290.739 874.858 288.873L834.288 288.873C835.394 285.824 835.864 277.857 834.288 274.933C835.588 272.469 835.207 266.848 834.288 264.235L871.509 264.235C872.428 262.275 872.524 241.286 871.509 239.037L834.288 239.037C835.571 235.844 835.704 221.384 834.288 218.257L874.858 218.257C875.767 216.007 875.987 195.25 874.858 193.105L827.39 193.079C819.271 193.075 811.052 192.811 802.941 193.105C802.61 203.957 802.922 214.875 802.93 225.735L802.905 292.199C802.882 297.517 804.194 308.639 802.941 313.214ZM329.767 286.854C336.812 306.739 353.5 316.617 374.082 315.985C411.168 315.619 431.568 275.999 407.452 252.669C395.431 241.04 365.677 237.556 365.238 224.177C364.859 212.646 385.072 210.418 392.748 226.104C400.661 223.44 408.209 219.556 415.686 215.87C409.082 200.144 388.392 185.276 370.865 191.251C348.339 193.05 333.397 210.232 335.337 232.869C338.309 267.533 384.913 262.717 386.697 279.285C388.226 293.498 361.839 298.698 352.926 278.314C345.07 280.683 337.43 283.925 329.767 286.854ZM500.572 239.037L474.284 239.109C470.133 239.12 465.573 239.532 461.472 239.037L461.472 218.257C475.528 218.28 489.602 218.452 503.655 218.257C503.679 209.826 502.841 201.5 503.655 193.105L430.674 193.105L430.674 313.214C454.995 313.218 479.337 312.953 503.655 313.214L503.655 288.873L461.472 288.873L461.472 274.933L461.472 264.235L500.572 264.235L500.572 239.037ZM611.964 288.873C607.791 286.259 601.733 282.356 597.082 280.971C594.775 278.667 589.19 275.82 586.023 274.933C587.605 288.812 564.225 297.062 552.904 286.725C540.2 275.126 540.829 234.869 551.804 222.939C563.818 209.88 586.889 221.74 586.023 232.854C589.643 231.602 610.438 220.278 611.964 218.257C610.395 201.552 576.574 190.279 561.278 191.251C505.009 196.431 498.653 278.147 532.307 305.809C561.241 329.592 614.904 306.839 611.964 288.873Z"/>
	<path transform="scale(0.622549 0.622549)" d="M729.14 218.257C755.012 214.56 762.65 234.957 750.646 242.41C747.365 248.049 734.639 246.546 729.14 246.496C729.878 244.972 729.494 220.994 729.14 218.257Z"/>
	<path transform="scale(0.622549 0.622549)" d="M165.555 154.125C202.267 154.043 241.054 150.616 258.621 191.739C272.727 224.761 262.682 262.152 228.025 276.682C236.414 285.648 266.665 311.957 265.938 323.762C264.713 343.668 239 342.085 224.766 340.881C213.709 339.946 208.386 333.519 201.744 325.62L177.319 298.616C172.685 293.504 168.141 287.918 162.957 283.369C162.824 300.123 168.963 338.026 148.262 340.776C115.502 345.127 107.929 340.791 107.953 308.416L107.949 236.717C107.83 195.791 114.417 159.997 165.555 154.125Z"/>
	<path fill="#DC6F2B" transform="scale(0.622549 0.622549)" d="M170.497 202.031C181.598 201.963 201.295 198.698 208.171 210.267C213.583 219.373 211 232.079 201.744 237.279C191.423 240.52 174.042 239.067 162.957 239.037C163.056 228.769 157.94 205.791 170.497 202.031Z"/>
</svg>
